PathFileType	4	(X/Y/Z)	 New Session 102.trc
DataRate	CameraRate	NumFrames	NumMarkers	Units	OrigDataRate	OrigDataStartFrame	OrigNumFrames
100	100	27	14	m	100	1	302
Frame#	Time	C7			T8			IJ			PX			AA			AC			AI			TS			SC			GH			LE			ME			US			RS			
		X1	Y1	Z1	X2	Y2	Z2	X3	Y3	Z3	X4	Y4	Z4	X5	Y5	Z5	X6	Y6	Z6	X7	Y7	Z7	X8	Y8	Z8	X9	Y9	Z9	X10	Y10	Z10	X11	Y11	Z11	X12	Y12	Z12	X13	Y13	Z13	X14	Y14	Z14	
1	0.0100	0.024985	0.103540	0.162307	0.029229	-0.111453	0.233714	0.000000	0.000000	0.000000	0.001014	-0.142711	-0.066853	0.222751	0.006419	0.139881	0.170149	0.048560	0.070875	0.108529	0.026461	0.200636	0.111460	-0.091953	0.230797	0.025362	0.008098	0.003795	0.232575	0.019578	0.099572	0.319767	-0.249331	0.009743	0.245640	-0.300659	0.045441	0.396994	-0.492142	-0.094347	0.323991	-0.500836	-0.129881	
2	0.0200	0.024969	0.103569	0.162380	0.029247	-0.111471	0.233758	0.000014	-0.000014	0.000049	0.001042	-0.142686	-0.066799	0.222740	0.006401	0.139936	0.170159	0.048565	0.070936	0.108526	0.026452	0.200705	0.111467	-0.091961	0.230853	0.025348	0.008119	0.003874	0.232572	0.019567	0.099647	0.319826	-0.249351	0.009749	0.245661	-0.300708	0.045473	0.396982	-0.492136	-0.094339	0.323994	-0.500815	-0.129891	
3	0.0300	0.024956	0.103607	0.162463	0.029263	-0.111490	0.233802	0.000027	-0.000025	0.000095	0.001056	-0.142671	-0.066751	0.222731	0.006387	0.139992	0.170160	0.048575	0.070992	0.108527	0.026446	0.200765	0.111475	-0.091968	0.230905	0.025344	0.008129	0.003935	0.232576	0.019561	0.099719	0.319875	-0.249361	0.009773	0.245680	-0.300733	0.045508	0.396977	-0.492126	-0.094334	0.324002	-0.500793	-0.129899	
4	0.0400	0.024951	0.103641	0.162545	0.029276	-0.111505	0.233845	0.000040	-0.000035	0.000139	0.001060	-0.142669	-0.066706	0.222727	0.006377	0.140049	0.170158	0.048584	0.071042	0.108533	0.026438	0.200817	0.111486	-0.091975	0.230952	0.025352	0.008123	0.003982	0.232583	0.019557	0.099782	0.319914	-0.249361	0.009809	0.245698	-0.300734	0.045545	0.396977	-0.492115	-0.094331	0.324013	-0.500769	-0.129906	
5	0.0500	0.024962	0.103654	0.162612	0.029286	-0.111513	0.233888	0.000053	-0.000042	0.000179	0.001058	-0.142681	-0.066662	0.222731	0.006374	0.140106	0.170165	0.048585	0.071089	0.108546	0.026428	0.200864	0.111498	-0.091982	0.230995	0.025373	0.008107	0.004026	0.232591	0.019558	0.099833	0.319944	-0.249354	0.009849	0.245714	-0.300717	0.045579	0.396982	-0.492104	-0.094325	0.324027	-0.500744	-0.129910	
6	0.0600	0.024990	0.103650	0.162660	0.029295	-0.111513	0.233930	0.000064	-0.000047	0.000217	0.001058	-0.142698	-0.066618	0.222745	0.006380	0.140157	0.170178	0.048578	0.071139	0.108565	0.026420	0.200907	0.111511	-0.091988	0.231034	0.025400	0.008091	0.004071	0.232597	0.019563	0.099873	0.319964	-0.249342	0.009886	0.245726	-0.300688	0.045609	0.396988	-0.492092	-0.094311	0.324042	-0.500719	-0.129910	
7	0.0700	0.025018	0.103646	0.162701	0.029304	-0.111506	0.233971	0.000075	-0.000050	0.000253	0.001065	-0.142713	-0.066575	0.222765	0.006395	0.140201	0.170190	0.048570	0.071191	0.108583	0.026424	0.200946	0.111526	-0.091994	0.231068	0.025420	0.008084	0.004115	0.232602	0.019573	0.099909	0.319973	-0.249326	0.009921	0.245735	-0.300657	0.045635	0.396991	-0.492075	-0.094290	0.324055	-0.500695	-0.129904	
8	0.0800	0.025034	0.103658	0.162747	0.029312	-0.111500	0.234013	0.000086	-0.000051	0.000285	0.001074	-0.142716	-0.066533	0.222785	0.006417	0.140235	0.170193	0.048572	0.071244	0.108593	0.026439	0.200984	0.111542	-0.091999	0.231098	0.025421	0.008088	0.004157	0.232609	0.019589	0.099948	0.319971	-0.249308	0.009955	0.245740	-0.300629	0.045654	0.396986	-0.492053	-0.094263	0.324064	-0.500675	-0.129889	
9	0.0900	0.025038	0.103673	0.162795	0.029321	-0.111500	0.234057	0.000095	-0.000051	0.000315	0.001079	-0.142709	-0.066498	0.222799	0.006436	0.140263	0.170188	0.048586	0.071296	0.108589	0.026456	0.201024	0.111558	-0.092004	0.231125	0.025407	0.008100	0.004197	0.232613	0.019609	0.099995	0.319962	-0.249290	0.009987	0.245743	-0.300608	0.045669	0.396972	-0.492031	-0.094236	0.324069	-0.500659	-0.129865	
10	0.1000	0.025037	0.103673	0.162837	0.029336	-0.111508	0.234107	0.000105	-0.000048	0.000343	0.001079	-0.142697	-0.066472	0.222804	0.006445	0.140288	0.170182	0.048599	0.071343	0.108577	0.026460	0.201065	0.111574	-0.092009	0.231148	0.025391	0.008116	0.004231	0.232609	0.019627	0.100044	0.319953	-0.249274	0.010016	0.245749	-0.300594	0.045682	0.396954	-0.492013	-0.094215	0.324068	-0.500648	-0.129834	
11	0.1100	0.025040	0.103651	0.162868	0.029369	-0.111522	0.234162	0.000113	-0.000044	0.000369	0.001074	-0.142691	-0.066452	0.222800	0.006442	0.140314	0.170181	0.048604	0.071389	0.108564	0.026443	0.201103	0.111588	-0.092013	0.231167	0.025385	0.008129	0.004254	0.232599	0.019638	0.100091	0.319953	-0.249261	0.010036	0.245756	-0.300582	0.045698	0.396939	-0.492003	-0.094205	0.324062	-0.500639	-0.129799	
12	0.1200	0.025050	0.103612	0.162890	0.029427	-0.111538	0.234220	0.000120	-0.000039	0.000392	0.001069	-0.142696	-0.066431	0.222790	0.006433	0.140347	0.170180	0.048604	0.071436	0.108559	0.026407	0.201135	0.111602	-0.092017	0.231184	0.025390	0.008130	0.004273	0.232587	0.019638	0.100135	0.319963	-0.249249	0.010054	0.245764	-0.300570	0.045719	0.396934	-0.491998	-0.094209	0.324053	-0.500627	-0.129767	
13	0.1300	0.025064	0.103575	0.162907	0.029499	-0.111555	0.234272	0.000126	-0.000033	0.000413	0.001068	-0.142710	-0.066405	0.222778	0.006426	0.140392	0.170173	0.048605	0.071487	0.108564	0.026371	0.201166	0.111614	-0.092021	0.231199	0.025405	0.008118	0.004298	0.232582	0.019633	0.100179	0.319976	-0.249234	0.010073	0.245771	-0.300557	0.045741	0.396938	-0.491991	-0.094220	0.324043	-0.500609	-0.129743	
14	0.1400	0.025072	0.103560	0.162926	0.029554	-0.111568	0.234307	0.000130	-0.000026	0.000432	0.001069	-0.142724	-0.066377	0.222760	0.006428	0.140440	0.170166	0.048618	0.071535	0.108577	0.026356	0.201195	0.111624	-0.092024	0.231212	0.025422	0.008105	0.004327	0.232586	0.019638	0.100226	0.319987	-0.249211	0.010096	0.245774	-0.300540	0.045757	0.396946	-0.491976	-0.094233	0.324032	-0.500581	-0.129731	
15	0.1500	0.025068	0.103580	0.162952	0.029568	-0.111570	0.234317	0.000133	-0.000020	0.000450	0.001069	-0.142731	-0.066352	0.222737	0.006444	0.140480	0.170162	0.048646	0.071574	0.108589	0.026373	0.201223	0.111631	-0.092026	0.231223	0.025434	0.008104	0.004354	0.232594	0.019660	0.100270	0.319996	-0.249178	0.010119	0.245777	-0.300521	0.045763	0.396951	-0.491948	-0.094242	0.324024	-0.500546	-0.129733	
16	0.1600	0.025056	0.103619	0.162976	0.029547	-0.111559	0.234314	0.000134	-0.000013	0.000465	0.001067	-0.142728	-0.066340	0.222714	0.006468	0.140504	0.170159	0.048678	0.071601	0.108591	0.026413	0.201247	0.111636	-0.092027	0.231233	0.025437	0.008119	0.004377	0.232600	0.019693	0.100300	0.320001	-0.249140	0.010140	0.245780	-0.300500	0.045761	0.396952	-0.491914	-0.094246	0.324020	-0.500505	-0.129746	
17	0.1700	0.025043	0.103655	0.162989	0.029516	-0.111540	0.234306	0.000133	-0.000006	0.000477	0.001064	-0.142720	-0.066346	0.222702	0.006493	0.140514	0.170151	0.048704	0.071616	0.108584	0.026453	0.201266	0.111638	-0.092028	0.231242	0.025430	0.008141	0.004397	0.232599	0.019722	0.100317	0.320004	-0.249104	0.010157	0.245784	-0.300479	0.045758	0.396952	-0.491881	-0.094248	0.324022	-0.500464	-0.129764	
18	0.1800	0.025036	0.103672	0.162991	0.029495	-0.111527	0.234298	0.000130	-0.000001	0.000487	0.001060	-0.142713	-0.066362	0.222704	0.006512	0.140520	0.170139	0.048716	0.071621	0.108576	0.026474	0.201280	0.111638	-0.092027	0.231250	0.025415	0.008158	0.004414	0.232589	0.019738	0.100325	0.320007	-0.249077	0.010171	0.245790	-0.300460	0.045759	0.396956	-0.491858	-0.094247	0.324031	-0.500430	-0.129778	
19	0.1900	0.025035	0.103671	0.162991	0.029489	-0.111527	0.234289	0.000125	0.000004	0.000494	0.001059	-0.142710	-0.066376	0.222717	0.006519	0.140532	0.170133	0.048712	0.071626	0.108571	0.026468	0.201289	0.111634	-0.092026	0.231257	0.025399	0.008166	0.004428	0.232577	0.019741	0.100339	0.320007	-0.249066	0.010182	0.245798	-0.300447	0.045762	0.396969	-0.491847	-0.094242	0.324046	-0.500405	-0.129781	
20	0.2000	0.025038	0.103656	0.162994	0.029499	-0.111539	0.234285	0.000119	0.000007	0.000497	0.001064	-0.142711	-0.066381	0.222728	0.006514	0.140554	0.170135	0.048696	0.071637	0.108565	0.026438	0.201293	0.111629	-0.092024	0.231262	0.025389	0.008168	0.004434	0.232571	0.019735	0.100362	0.320001	-0.249069	0.010192	0.245805	-0.300443	0.045763	0.396998	-0.491845	-0.094232	0.324069	-0.500389	-0.129768	
21	0.2100	0.025038	0.103641	0.162998	0.029518	-0.111556	0.234291	0.000111	0.000008	0.000496	0.001076	-0.142713	-0.066377	0.222727	0.006502	0.140578	0.170140	0.048678	0.071652	0.108554	0.026404	0.201289	0.111620	-0.092020	0.231266	0.025388	0.008164	0.004429	0.232574	0.019723	0.100383	0.319989	-0.249079	0.010200	0.245808	-0.300448	0.045759	0.397042	-0.491844	-0.094218	0.324098	-0.500380	-0.129742	
22	0.2200	0.025032	0.103634	0.162994	0.029535	-0.111568	0.234303	0.000102	0.000007	0.000491	0.001087	-0.142713	-0.066372	0.222715	0.006494	0.140593	0.170139	0.048667	0.071659	0.108534	0.026385	0.201280	0.111610	-0.092014	0.231269	0.025385	0.008158	0.004413	0.232574	0.019714	0.100388	0.319973	-0.249086	0.010203	0.245809	-0.300456	0.045748	0.397097	-0.491837	-0.094209	0.324132	-0.500373	-0.129709	
23	0.2300	0.025018	0.103639	0.162977	0.029533	-0.111568	0.234310	0.000092	0.000005	0.000482	0.001084	-0.142707	-0.066372	0.222698	0.006498	0.140594	0.170127	0.048669	0.071648	0.108510	0.026391	0.201264	0.111598	-0.092006	0.231269	0.025372	0.008156	0.004392	0.232565	0.019718	0.100370	0.319960	-0.249079	0.010197	0.245811	-0.300457	0.045730	0.397154	-0.491821	-0.094212	0.324167	-0.500363	-0.129682	
24	0.2400	0.025000	0.103652	0.162944	0.029503	-0.111554	0.234301	0.000081	0.000000	0.000468	0.001067	-0.142697	-0.066385	0.222688	0.006517	0.140582	0.170111	0.048684	0.071619	0.108485	0.026419	0.201241	0.111586	-0.091995	0.231267	0.025351	0.008158	0.004367	0.232548	0.019740	0.100337	0.319953	-0.249056	0.010180	0.245814	-0.300448	0.045705	0.397203	-0.491796	-0.094232	0.324200	-0.500346	-0.129672	
25	0.2500	0.024987	0.103664	0.162900	0.029459	-0.111529	0.234279	0.000069	-0.000006	0.000449	0.001049	-0.142692	-0.066408	0.222685	0.006545	0.140556	0.170094	0.048707	0.071580	0.108466	0.026457	0.201209	0.111574	-0.091982	0.231261	0.025334	0.008163	0.004342	0.232531	0.019772	0.100301	0.319956	-0.249020	0.010151	0.245816	-0.300431	0.045678	0.397242	-0.491766	-0.094263	0.324228	-0.500321	-0.129689	
26	0.2600	0.024984	0.103672	0.162852	0.029422	-0.111502	0.234252	0.000058	-0.000013	0.000425	0.001040	-0.142699	-0.066434	0.222689	0.006573	0.140518	0.170078	0.048729	0.071539	0.108461	0.026494	0.201172	0.111562	-0.091965	0.231252	0.025327	0.008163	0.004314	0.232522	0.019803	0.100265	0.319969	-0.248981	0.010111	0.245817	-0.300411	0.045652	0.397275	-0.491735	-0.094295	0.324251	-0.500291	-0.129728	
27	0.2700	0.024987	0.103676	0.162805	0.029402	-0.111480	0.234224	0.000046	-0.000022	0.000397	0.001038	-0.142719	-0.066456	0.222692	0.006595	0.140473	0.170065	0.048743	0.071496	0.108465	0.026521	0.201130	0.111553	-0.091947	0.231239	0.025330	0.008158	0.004281	0.232523	0.019826	0.100226	0.319991	-0.248947	0.010062	0.245823	-0.300394	0.045628	0.397311	-0.491707	-0.094323	0.324270	-0.500259	-0.129778	
